<svg xmlns="http://www.w3.org/2000/svg" viewBox="0 0 150 150" width="100%" height="100%" preserveAspectRatio="xMidYMid meet"><path d="M67.598 90.611c-.214 1.833-2.104 6.85.554 7.39 3.652.753 5.514-8.086 13.941-3.382 4.846 2.7 5.457 11.099 7.873 15.902l5.145.142c-1.066-5.187-3.823-8.725-2.075-14.154s18.39-19.81 10.573-23.35c-2.103-.952-9.521 5.898-9.592 1.052-.143-8.967 14.154-14.14 11.482-22.994-2.671-8.854-13.87 7.39-18.36 3.51-4.705-6.92 22.638-23.264-3.667-22.212v-6.338h58.195l-.142 6.196c-5.741 1.45-9.28 1.42-13.017 6.551l-37.746 95.927-30.043-.924-38.157-95.003c-3.44-4.746-7.22-6.338-13.103-6.452l-.057-6.295h59.247v6.338C39.573 32.4 78 51.999 72.87 56.802c-4.619 1.706-14.453-5.997-17.48-1.066-5.415 8.854 16.173 14.752 20.18 18.973 3.496 3.695 4.477 10.388 6.822 14.822-6.665.767-4.917-4.377-7.547-7.788-5.286-6.85-5.13 5.159-5.883 7.603-.384 1.25-1.35 1.166-1.393 1.25.412-3.51 1.606-6.934 1.038-10.544-15.434-4.235-18.774 11.014-3.724 14.794.37-1.734 2.217-3.396 2.686-4.25z" style="fill:#8a6e4b;stroke-width:1.42114"/></svg>