<svg xmlns="http://www.w3.org/2000/svg" id="navbar-logo-krantzlab_Layer_1" preserveAspectRatio="xMidYMid meet" viewBox="0 0 218.17 39.99" width="100%" height="100%"><defs id="navbar-logo-krantzlab_defs1"><style id="navbar-logo-krantzlab_style1">.navbar-logo-krantzlab_st0{fill:#74a0d1}.navbar-logo-krantzlab_st1{fill:#99badd}.navbar-logo-krantzlab_st6{fill:#366da6}</style></defs><g id="navbar-logo-krantzlab_g1"><path id="navbar-logo-krantzlab_polyline1" d="m49.77 19.97.67.38 11.36 6.42.56.31" class="navbar-logo-krantzlab_st0"/><path id="navbar-logo-krantzlab_polygon1" d="m61.63 28.39-.56-.31-12.04-6.8 1.48-2.61 12.58 7.1z" class="navbar-logo-krantzlab_st0"/></g><g id="navbar-logo-krantzlab_g2"><path id="navbar-logo-krantzlab_polyline2" d="m49.96 20.86.55-.23 7.63-3.08 7.17-2.9" class="navbar-logo-krantzlab_st0"/><path id="navbar-logo-krantzlab_polygon2" d="m50.54 22.24-1.16-2.76.55-.23 14.82-5.99 1.12 2.78z" class="navbar-logo-krantzlab_st0"/></g><g id="navbar-logo-krantzlab_g3"><path id="navbar-logo-krantzlab_polyline3" d="m51.45 10.4.6.14 7.4 1.74 4.69 1.11.1.02" class="navbar-logo-krantzlab_st0"/><path id="navbar-logo-krantzlab_polygon3" d="m63.95 14.88-.1-.02-12.74-3 .68-2.92 12.74 3z" class="navbar-logo-krantzlab_st0"/></g><g id="navbar-logo-krantzlab_g5" style="isolation:isolate"><path id="navbar-logo-krantzlab_text3" d="m4.38-7.057 3.808-4.954h3.855L7.28-6.324 12.49 0H8.442L4.38-5.21V0H1.258v-12.011h3.123zm14.848.414h.589q.924 0 1.418-.382t.494-1.1-.494-1.098-1.418-.383h-.59zM26.093 0h-3.887l-2.978-4.62V0h-3.123v-12.011h4.859q1.003 0 1.752.302.749.287 1.227.797.494.51.733 1.179.254.669.254 1.433 0 1.37-.669 2.23-.653.845-1.943 1.148zm10.068-4.46-1.401-4-1.403 4zm.828 2.373h-4.46L31.812 0h-3.33l4.573-12.011h3.409L41.036 0h-3.33zM44.636 0v-12.011h3.122l5.767 7.344v-7.344h3.106V0h-3.106l-5.767-7.344V0Zm21.298-9.367V0h-3.122v-9.367h-2.565v-2.644H68.5v2.644zm10.403 6.723h5.033V0H71.096l5.687-9.367H72.05v-2.644h9.94z" aria-label="KRANTZ" style="isolation:isolate;font-weight:700;font-size:15.93px;font-family:Futura-Bold,Futura;letter-spacing:.14em" transform="translate(86.43 34.51)"/><path id="navbar-logo-krantzlab_text4" d="M4.38-12.011v9.367h3.744V0H1.258v-12.011z" aria-label="L" style="isolation:isolate;font-weight:700;font-size:15.93px;font-family:Futura-Bold,Futura;letter-spacing:.18em" transform="translate(178.99 34.51)"/><path id="navbar-logo-krantzlab_text5" d="m7.79-4.46-1.402-4-1.402 4zm.828 2.373h-4.46L3.44 0H.11l4.572-12.011h3.41L12.663 0H9.335Zm10.769-.334h.685q1.179 0 1.688-.303.51-.303.51-.972t-.51-.971-1.688-.303h-.685zm0-4.875h.573q1.466 0 1.466-1.163T19.96-9.622h-.573zm-3.122-4.715h4.651q1.657 0 2.517.796.86.797.86 2.294 0 .908-.334 1.514-.319.589-.988 1.003.67.128 1.131.398.478.255.765.638.302.382.43.86.127.478.127 1.02 0 .844-.302 1.497-.287.653-.829 1.099-.525.446-1.29.669T21.283 0h-5.018z" aria-label="AB" style="isolation:isolate;font-weight:700;font-size:15.93px;font-family:Futura-Bold,Futura;letter-spacing:.14em" transform="translate(190.25 34.51)"/></g><g id="navbar-logo-krantzlab_g6"><path id="navbar-logo-krantzlab_path5" d="M68.85 23.49c-.49-.67-.77-1.49-.77-2.38s.3-1.75.8-2.43c.74-.99 1.92-1.63 3.25-1.63 2.24 0 4.06 1.82 4.06 4.06 0 .45-.07.88-.21 1.28a4.05 4.05 0 0 1-3.85 2.78c-1.35 0-2.55-.66-3.28-1.67Z" class="navbar-logo-krantzlab_st6"/><path id="navbar-logo-krantzlab_path6" d="M72.13 25.67c-1.46 0-2.84-.7-3.69-1.88l-.09-.14c-.5-.75-.77-1.62-.77-2.54 0-.97.32-1.94.9-2.73a4.5 4.5 0 0 1 3.65-1.83 4.57 4.57 0 0 1 4.56 4.56c0 .51-.08.99-.24 1.45a4.53 4.53 0 0 1-4.32 3.11m-2.78-2.34c.67.84 1.69 1.34 2.78 1.34 1.54 0 2.9-.98 3.38-2.44.12-.35.19-.73.19-1.12 0-1.96-1.6-3.56-3.56-3.56-1.13 0-2.17.52-2.85 1.43-.45.61-.7 1.37-.7 2.13s.23 1.48.67 2.08l.1.14Z" class="navbar-logo-krantzlab_st6"/></g><g id="navbar-logo-krantzlab_g8"><path id="navbar-logo-krantzlab_path7" d="M62.72 23.14c1.04.17 1.93.79 2.45 1.66.32.54.51 1.16.51 1.84 0 1.96-1.58 3.54-3.54 3.54a3.534 3.534 0 0 1-3.53-3.38v-.16c0-1.1.5-2.08 1.29-2.73a3.5 3.5 0 0 1 2.82-.76Z" class="navbar-logo-krantzlab_st6"/><path id="navbar-logo-krantzlab_path8" d="M62.14 30.68c-.35 0-.67-.04-.97-.12a4.01 4.01 0 0 1-3.06-3.74v-.18c0-1.21.54-2.35 1.47-3.12.73-.61 1.66-.96 2.64-.92v-.04l.58.08a4 4 0 0 1 2.8 1.9c.39.65.58 1.36.58 2.1 0 2.23-1.81 4.04-4.04 4.04m.01-7.08c-.71 0-1.39.25-1.93.69-.71.58-1.11 1.44-1.11 2.35v.16c.06 1.34.99 2.47 2.31 2.79.22.06.46.08.72.08 1.68 0 3.04-1.36 3.04-3.04 0-.56-.15-1.09-.44-1.58a3.04 3.04 0 0 0-1.84-1.37l-.27-.04a2.6 2.6 0 0 0-.49-.04Z" class="navbar-logo-krantzlab_st6"/></g><g id="navbar-logo-krantzlab_g10"><path id="navbar-logo-krantzlab_path9" d="M52.59 13.21c-.29.14-.62.21-.97.21-.43 0-.83-.12-1.17-.32a2.31 2.31 0 0 1-1.15-2c0-1.28 1.04-2.32 2.32-2.32a2.322 2.322 0 0 1 .97 4.43" class="navbar-logo-krantzlab_st0"/><path id="navbar-logo-krantzlab_path10" d="M51.62 14.92c-.68 0-1.34-.18-1.93-.53a3.82 3.82 0 0 1-1.89-3.29 3.82 3.82 0 1 1 7.25 1.68 3.79 3.79 0 0 1-3.43 2.13Zm0-4.64c-.45 0-.82.37-.82.82 0 .29.15.56.4.7.25.15.56.14.74.06h.03c.16-.09.31-.23.39-.39.06-.12.09-.24.09-.37 0-.45-.37-.82-.82-.82Z" class="navbar-logo-krantzlab_st0"/></g><g id="navbar-logo-krantzlab_g12"><path id="navbar-logo-krantzlab_path11" d="M41.53 2.96v.52l-.07 14.53c-.17.31-.27.66-.27 1.03s.09.71.26 1.01l-.07 15.01v.35H19.39c-8.96 0-16.23-7.27-16.23-16.23S10.43 2.96 19.39 2.96z" class="navbar-logo-krantzlab_st0"/><path id="navbar-logo-krantzlab_path12" d="M42.88 36.91H19.39c-9.78 0-17.73-7.95-17.73-17.73S9.61 1.46 19.39 1.46h23.64v2.02l-.07 14.92-.18.33a.61.61 0 0 0-.03.58l.2.35zM19.39 4.46c-8.12 0-14.73 6.6-14.73 14.72s6.61 14.73 14.73 14.73h20.5l.06-13.53a3.6 3.6 0 0 1 .01-2.71l.06-13.21z" class="navbar-logo-krantzlab_st0"/></g><path id="navbar-logo-krantzlab_path13" d="M40.8 17.58v2.04a2.06 2.06 0 0 1 0-2.04" class="navbar-logo-krantzlab_st1"/><g id="navbar-logo-krantzlab_g15"><path id="navbar-logo-krantzlab_path14" d="M18.73 34.98c-8.96 0-16.23-7.27-16.23-16.23S9.77 2.52 18.73 2.52" class="navbar-logo-krantzlab_st0"/><path id="navbar-logo-krantzlab_path15" d="M18.73 37.48C8.4 37.48 0 29.08 0 18.75S8.4.02 18.73.02v5C11.16 5.02 5 11.18 5 18.75s6.16 13.73 13.73 13.73z" class="navbar-logo-krantzlab_st0"/></g><path id="navbar-logo-krantzlab_path16" d="M64.57 37.46v-5c6.27 0 11.74-4.23 13.3-10.29.29-1.12.43-2.28.43-3.44 0-6.51-4.63-12.17-11.01-13.46-.67-.13-1.39-.22-2.11-.25-.26-.02-.43-.02-.61-.02V0c.32 0 .63 0 .94.03.88.04 1.84.16 2.77.34 8.71 1.76 15.03 9.48 15.03 18.36 0 1.57-.2 3.14-.59 4.68-2.13 8.28-9.59 14.05-18.14 14.05Z" class="navbar-logo-krantzlab_st6"/><g id="navbar-logo-krantzlab_g16"><path id="navbar-logo-krantzlab_polyline16" d="M58.71 34.98H18.73" class="navbar-logo-krantzlab_st0"/><path id="navbar-logo-krantzlab_rect16" d="M18.73 32.48h39.98v5H18.73z" class="navbar-logo-krantzlab_st0"/></g><path id="navbar-logo-krantzlab_rect17" d="M58.71 32.48h6.45v5h-6.45z" class="navbar-logo-krantzlab_st6"/><path id="navbar-logo-krantzlab_rect18" d="M62.11.02h3.19v5h-3.19z" class="navbar-logo-krantzlab_st6"/><path id="navbar-logo-krantzlab_rect19" d="M18.73.02h43.38v5H18.73z" class="navbar-logo-krantzlab_st0"/><path id="navbar-logo-krantzlab_rect20" d="M33.56 5.31H48.1v10H33.56z" class="navbar-logo-krantzlab_st0" transform="rotate(-89.72 40.835 10.306)"/><path id="navbar-logo-krantzlab_rect21" d="M30.79 19.66h19.94v10H30.79z" class="navbar-logo-krantzlab_st0" transform="rotate(-89.8 40.754 24.662)"/><g id="navbar-logo-krantzlab_g22"><path id="navbar-logo-krantzlab_path21" d="M53.81 19.83c.34.38.55.88.55 1.43v.1c-.03.57-.27 1.08-.66 1.45a2.132 2.132 0 1 1-2.81-3.2c.37-.3.84-.48 1.35-.48.62 0 1.18.27 1.57.7" style="fill:#4c86c5"/><path id="navbar-logo-krantzlab_path22" d="M52.24 25.39c-2.28 0-4.13-1.85-4.13-4.13 0-1.25.55-2.42 1.52-3.2.74-.6 1.67-.93 2.61-.93 1.16 0 2.27.49 3.05 1.36.68.77 1.06 1.75 1.06 2.77v.21a4.16 4.16 0 0 1-1.28 2.8c-.77.73-1.77 1.13-2.84 1.13Zm0-4.26c-.1.04-.13.07-.13.13 0 .08.07.13.13.13.09-.04.11-.08.12-.11v-.02s0-.05-.04-.09c-.03-.03-.05-.04-.08-.04" class="navbar-logo-krantzlab_st0"/></g><g id="navbar-logo-krantzlab_g23"><path id="navbar-logo-krantzlab_polyline22" d="m62.84 26.49 8.9-4.37.67-.32" class="navbar-logo-krantzlab_st1"/><path id="navbar-logo-krantzlab_polygon22" d="m63.5 27.84-1.32-2.7 9.58-4.69 1.3 2.7-.67.32z" class="navbar-logo-krantzlab_st6"/></g><g id="navbar-logo-krantzlab_g24"><path id="navbar-logo-krantzlab_polyline23" d="m62.2 29.36-.03.49-.28 4.59" class="navbar-logo-krantzlab_st6"/><path id="navbar-logo-krantzlab_rect23" d="M59.5 30.4h5.09v3H59.5z" class="navbar-logo-krantzlab_st6" transform="rotate(-86.53 62.046 31.899)"/></g><g id="navbar-logo-krantzlab_g25"><path id="navbar-logo-krantzlab_polyline24" d="m75.53 21.39.16.05 3.99 1.22" class="navbar-logo-krantzlab_st6"/><path id="navbar-logo-krantzlab_polygon24" d="m79.24 24.09-4.16-1.27.9-2.86 4.14 1.27z" class="navbar-logo-krantzlab_st6"/></g><path id="navbar-logo-krantzlab_rect25" d="M62.18 8.8h10.96v3H62.18z" class="navbar-logo-krantzlab_st6" transform="rotate(-57.44 67.66 10.295)"/><path id="navbar-logo-krantzlab_rect26" d="M49.98 12h3v6.62h-3z" class="navbar-logo-krantzlab_st0" transform="rotate(-.43 51.91 14.852)"/><path id="navbar-logo-krantzlab_rect27" d="M47.79 2.7h3v5.96h-3z" class="navbar-logo-krantzlab_st0" transform="rotate(-22.82 49.29 5.667)"/><path id="navbar-logo-krantzlab_rect28" d="M40.37 21.29h8.99v3h-8.99z" class="navbar-logo-krantzlab_st0" transform="rotate(-22.14 44.869 22.789)"/><g id="navbar-logo-krantzlab_g29"><path id="navbar-logo-krantzlab_path28" d="M66.21 10.36c1.17.19 2.17.89 2.77 1.87a3.988 3.988 0 0 1-3.41 6.06c-.33 0-.64-.04-.95-.11a3.99 3.99 0 0 1-3.04-3.7v-.18a4 4 0 0 1 1.45-3.08c.69-.57 1.57-.91 2.54-.91.22 0 .44.02.65.05z" class="navbar-logo-krantzlab_st6"/><path id="navbar-logo-krantzlab_path29" d="M65.57 18.79c-.35 0-.69-.04-1.06-.12a4.52 4.52 0 0 1-3.43-4.17v-.2c0-1.34.59-2.6 1.63-3.46.81-.67 1.8-1.03 2.86-1.03.24 0 .49.02.72.05 1.29.21 2.43.98 3.12 2.1.43.69.65 1.5.65 2.33a4.49 4.49 0 0 1-4.49 4.49Zm0-7.98c-.82 0-1.59.27-2.22.8a3.48 3.48 0 0 0-1.27 2.69v.18a3.49 3.49 0 0 0 2.66 3.21c2.28.51 4.32-1.2 4.32-3.39 0-.65-.17-1.27-.51-1.81a3.5 3.5 0 0 0-2.42-1.64c-.18-.03-.37-.04-.56-.04" class="navbar-logo-krantzlab_st6"/></g><path id="navbar-logo-krantzlab_rect29" d="M67.88 12.84h3v10.21h-3z" class="navbar-logo-krantzlab_st6" transform="rotate(-55.25 69.388 17.948)"/></svg>