<?xml version="1.0" encoding="utf-8" standalone="no"?>
<!DOCTYPE svg PUBLIC "-//W3C//DTD SVG 1.1//EN"
  "http://www.w3.org/Graphics/SVG/1.1/DTD/svg11.dtd">
<svg xmlns:xlink="http://www.w3.org/1999/xlink" width="856.8pt" height="568.8pt" viewBox="0 0 856.8 568.8" xmlns="http://www.w3.org/2000/svg" version="1.1">
 <metadata>
  <rdf:RDF xmlns:dc="http://purl.org/dc/elements/1.1/" xmlns:cc="http://creativecommons.org/ns#" xmlns:rdf="http://www.w3.org/1999/02/22-rdf-syntax-ns#">
   <cc:Work>
    <dc:type rdf:resource="http://purl.org/dc/dcmitype/StillImage"/>
    <dc:date>2026-02-17T15:17:00.376806</dc:date>
    <dc:format>image/svg+xml</dc:format>
    <dc:creator>
     <cc:Agent>
      <dc:title>Matplotlib v3.10.8, https://matplotlib.org/</dc:title>
     </cc:Agent>
    </dc:creator>
   </cc:Work>
  </rdf:RDF>
 </metadata>
 <defs>
  <style type="text/css">*{stroke-linejoin: round; stroke-linecap: butt}</style>
 </defs>
 <g id="figure_1">
  <g id="patch_1">
   <path d="M 0 568.8 
L 856.8 568.8 
L 856.8 0 
L 0 0 
L 0 568.8 
z
" style="fill: none"/>
  </g>
  <g id="axes_1">
   <g id="patch_2">
    <path d="M 57.5 515.565625 
L 849.6 515.565625 
L 849.6 7.2 
L 57.5 7.2 
L 57.5 515.565625 
z
" style="fill: none"/>
   </g>
   <g id="PathCollection_1">
    <defs>
     <path id="C0_0_cf2a7d4f6b" d="M 0 5 
C 1.326016 5 2.597899 4.473168 3.535534 3.535534 
C 4.473168 2.597899 5 1.326016 5 -0 
C 5 -1.326016 4.473168 -2.597899 3.535534 -3.535534 
C 2.597899 -4.473168 1.326016 -5 0 -5 
C -1.326016 -5 -2.597899 -4.473168 -3.535534 -3.535534 
C -4.473168 -2.597899 -5 -1.326016 -5 0 
C -5 1.326016 -4.473168 2.597899 -3.535534 3.535534 
C -2.597899 4.473168 -1.326016 5 0 5 
z
"/>
    </defs>
    <g clip-path="url(#pa6c689e8e1)">
     <use xlink:href="#C0_0_cf2a7d4f6b" x="93.504545" y="467.093608" style="fill: #555555; fill-opacity: 0.7"/>
    </g>
    <g clip-path="url(#pa6c689e8e1)">
     <use xlink:href="#C0_0_cf2a7d4f6b" x="108.200278" y="490.834053" style="fill: #555555; fill-opacity: 0.7"/>
    </g>
    <g clip-path="url(#pa6c689e8e1)">
     <use xlink:href="#C0_0_cf2a7d4f6b" x="122.896011" y="442.01527" style="fill: #555555; fill-opacity: 0.7"/>
    </g>
    <g clip-path="url(#pa6c689e8e1)">
     <use xlink:href="#C0_0_cf2a7d4f6b" x="137.591744" y="388.631904" style="fill: #555555; fill-opacity: 0.7"/>
    </g>
    <g clip-path="url(#pa6c689e8e1)">
     <use xlink:href="#C0_0_cf2a7d4f6b" x="152.287477" y="469.67724" style="fill: #555555; fill-opacity: 0.7"/>
    </g>
    <g clip-path="url(#pa6c689e8e1)">
     <use xlink:href="#C0_0_cf2a7d4f6b" x="166.98321" y="460.991953" style="fill: #555555; fill-opacity: 0.7"/>
    </g>
    <g clip-path="url(#pa6c689e8e1)">
     <use xlink:href="#C0_0_cf2a7d4f6b" x="181.678942" y="359.7096" style="fill: #555555; fill-opacity: 0.7"/>
    </g>
    <g clip-path="url(#pa6c689e8e1)">
     <use xlink:href="#C0_0_cf2a7d4f6b" x="196.374675" y="392.47824" style="fill: #555555; fill-opacity: 0.7"/>
    </g>
    <g clip-path="url(#pa6c689e8e1)">
     <use xlink:href="#C0_0_cf2a7d4f6b" x="211.070408" y="446.956009" style="fill: #555555; fill-opacity: 0.7"/>
    </g>
    <g clip-path="url(#pa6c689e8e1)">
     <use xlink:href="#C0_0_cf2a7d4f6b" x="225.766141" y="386.592469" style="fill: #555555; fill-opacity: 0.7"/>
    </g>
    <g clip-path="url(#pa6c689e8e1)">
     <use xlink:href="#C0_0_cf2a7d4f6b" x="240.461874" y="429.277829" style="fill: #555555; fill-opacity: 0.7"/>
    </g>
    <g clip-path="url(#pa6c689e8e1)">
     <use xlink:href="#C0_0_cf2a7d4f6b" x="255.157607" y="420.711445" style="fill: #555555; fill-opacity: 0.7"/>
    </g>
    <g clip-path="url(#pa6c689e8e1)">
     <use xlink:href="#C0_0_cf2a7d4f6b" x="269.85334" y="375.889016" style="fill: #555555; fill-opacity: 0.7"/>
    </g>
    <g clip-path="url(#pa6c689e8e1)">
     <use xlink:href="#C0_0_cf2a7d4f6b" x="284.549072" y="477.261074" style="fill: #555555; fill-opacity: 0.7"/>
    </g>
    <g clip-path="url(#pa6c689e8e1)">
     <use xlink:href="#C0_0_cf2a7d4f6b" x="299.244805" y="458.957982" style="fill: #555555; fill-opacity: 0.7"/>
    </g>
    <g clip-path="url(#pa6c689e8e1)">
     <use xlink:href="#C0_0_cf2a7d4f6b" x="313.940538" y="390.904331" style="fill: #555555; fill-opacity: 0.7"/>
    </g>
    <g clip-path="url(#pa6c689e8e1)">
     <use xlink:href="#C0_0_cf2a7d4f6b" x="328.636271" y="405.226691" style="fill: #555555; fill-opacity: 0.7"/>
    </g>
    <g clip-path="url(#pa6c689e8e1)">
     <use xlink:href="#C0_0_cf2a7d4f6b" x="343.332004" y="328.775568" style="fill: #555555; fill-opacity: 0.7"/>
    </g>
    <g clip-path="url(#pa6c689e8e1)">
     <use xlink:href="#C0_0_cf2a7d4f6b" x="358.027737" y="382.505868" style="fill: #555555; fill-opacity: 0.7"/>
    </g>
    <g clip-path="url(#pa6c689e8e1)">
     <use xlink:href="#C0_0_cf2a7d4f6b" x="372.723469" y="399.572236" style="fill: #555555; fill-opacity: 0.7"/>
    </g>
    <g clip-path="url(#pa6c689e8e1)">
     <use xlink:href="#C0_0_cf2a7d4f6b" x="387.419202" y="243.926416" style="fill: #555555; fill-opacity: 0.7"/>
    </g>
    <g clip-path="url(#pa6c689e8e1)">
     <use xlink:href="#C0_0_cf2a7d4f6b" x="402.114935" y="321.613841" style="fill: #555555; fill-opacity: 0.7"/>
    </g>
    <g clip-path="url(#pa6c689e8e1)">
     <use xlink:href="#C0_0_cf2a7d4f6b" x="416.810668" y="297.951927" style="fill: #555555; fill-opacity: 0.7"/>
    </g>
    <g clip-path="url(#pa6c689e8e1)">
     <use xlink:href="#C0_0_cf2a7d4f6b" x="431.506401" y="365.469913" style="fill: #555555; fill-opacity: 0.7"/>
    </g>
    <g clip-path="url(#pa6c689e8e1)">
     <use xlink:href="#C0_0_cf2a7d4f6b" x="446.202134" y="311.829991" style="fill: #555555; fill-opacity: 0.7"/>
    </g>
    <g clip-path="url(#pa6c689e8e1)">
     <use xlink:href="#C0_0_cf2a7d4f6b" x="460.897866" y="269.682666" style="fill: #555555; fill-opacity: 0.7"/>
    </g>
    <g clip-path="url(#pa6c689e8e1)">
     <use xlink:href="#C0_0_cf2a7d4f6b" x="475.593599" y="325.437409" style="fill: #555555; fill-opacity: 0.7"/>
    </g>
    <g clip-path="url(#pa6c689e8e1)">
     <use xlink:href="#C0_0_cf2a7d4f6b" x="490.289332" y="238.793128" style="fill: #555555; fill-opacity: 0.7"/>
    </g>
    <g clip-path="url(#pa6c689e8e1)">
     <use xlink:href="#C0_0_cf2a7d4f6b" x="504.985065" y="279.964883" style="fill: #555555; fill-opacity: 0.7"/>
    </g>
    <g clip-path="url(#pa6c689e8e1)">
     <use xlink:href="#C0_0_cf2a7d4f6b" x="519.680798" y="255.504297" style="fill: #555555; fill-opacity: 0.7"/>
    </g>
    <g clip-path="url(#pa6c689e8e1)">
     <use xlink:href="#C0_0_cf2a7d4f6b" x="534.376531" y="262.650518" style="fill: #555555; fill-opacity: 0.7"/>
    </g>
    <g clip-path="url(#pa6c689e8e1)">
     <use xlink:href="#C0_0_cf2a7d4f6b" x="549.072263" y="128.65442" style="fill: #555555; fill-opacity: 0.7"/>
    </g>
    <g clip-path="url(#pa6c689e8e1)">
     <use xlink:href="#C0_0_cf2a7d4f6b" x="563.767996" y="215.244968" style="fill: #555555; fill-opacity: 0.7"/>
    </g>
    <g clip-path="url(#pa6c689e8e1)">
     <use xlink:href="#C0_0_cf2a7d4f6b" x="578.463729" y="259.882831" style="fill: #555555; fill-opacity: 0.7"/>
    </g>
    <g clip-path="url(#pa6c689e8e1)">
     <use xlink:href="#C0_0_cf2a7d4f6b" x="593.159462" y="155.183948" style="fill: #555555; fill-opacity: 0.7"/>
    </g>
    <g clip-path="url(#pa6c689e8e1)">
     <use xlink:href="#C0_0_cf2a7d4f6b" x="607.855195" y="250.844234" style="fill: #555555; fill-opacity: 0.7"/>
    </g>
    <g clip-path="url(#pa6c689e8e1)">
     <use xlink:href="#C0_0_cf2a7d4f6b" x="622.550928" y="169.152416" style="fill: #555555; fill-opacity: 0.7"/>
    </g>
    <g clip-path="url(#pa6c689e8e1)">
     <use xlink:href="#C0_0_cf2a7d4f6b" x="637.24666" y="271.203184" style="fill: #555555; fill-opacity: 0.7"/>
    </g>
    <g clip-path="url(#pa6c689e8e1)">
     <use xlink:href="#C0_0_cf2a7d4f6b" x="651.942393" y="230.27228" style="fill: #555555; fill-opacity: 0.7"/>
    </g>
    <g clip-path="url(#pa6c689e8e1)">
     <use xlink:href="#C0_0_cf2a7d4f6b" x="666.638126" y="143.711965" style="fill: #555555; fill-opacity: 0.7"/>
    </g>
    <g clip-path="url(#pa6c689e8e1)">
     <use xlink:href="#C0_0_cf2a7d4f6b" x="681.333859" y="107.370679" style="fill: #555555; fill-opacity: 0.7"/>
    </g>
    <g clip-path="url(#pa6c689e8e1)">
     <use xlink:href="#C0_0_cf2a7d4f6b" x="696.029592" y="127.644855" style="fill: #555555; fill-opacity: 0.7"/>
    </g>
    <g clip-path="url(#pa6c689e8e1)">
     <use xlink:href="#C0_0_cf2a7d4f6b" x="710.725325" y="133.61678" style="fill: #555555; fill-opacity: 0.7"/>
    </g>
    <g clip-path="url(#pa6c689e8e1)">
     <use xlink:href="#C0_0_cf2a7d4f6b" x="725.421058" y="134.40253" style="fill: #555555; fill-opacity: 0.7"/>
    </g>
    <g clip-path="url(#pa6c689e8e1)">
     <use xlink:href="#C0_0_cf2a7d4f6b" x="740.11679" y="185.842426" style="fill: #555555; fill-opacity: 0.7"/>
    </g>
    <g clip-path="url(#pa6c689e8e1)">
     <use xlink:href="#C0_0_cf2a7d4f6b" x="754.812523" y="138.416432" style="fill: #555555; fill-opacity: 0.7"/>
    </g>
    <g clip-path="url(#pa6c689e8e1)">
     <use xlink:href="#C0_0_cf2a7d4f6b" x="769.508256" y="116.495772" style="fill: #555555; fill-opacity: 0.7"/>
    </g>
    <g clip-path="url(#pa6c689e8e1)">
     <use xlink:href="#C0_0_cf2a7d4f6b" x="784.203989" y="30.307528" style="fill: #555555; fill-opacity: 0.7"/>
    </g>
    <g clip-path="url(#pa6c689e8e1)">
     <use xlink:href="#C0_0_cf2a7d4f6b" x="798.899722" y="58.057843" style="fill: #555555; fill-opacity: 0.7"/>
    </g>
    <g clip-path="url(#pa6c689e8e1)">
     <use xlink:href="#C0_0_cf2a7d4f6b" x="813.595455" y="156.948977" style="fill: #555555; fill-opacity: 0.7"/>
    </g>
   </g>
   <g id="matplotlib.axis_1">
    <g id="xtick_1">
     <g id="line2d_1">
      <defs>
       <path id="m4cda1c3312" d="M 0 0 
L 0 3.5 
" style="stroke: #999999; stroke-width: 0.8"/>
      </defs>
      <g>
       <use xlink:href="#m4cda1c3312" x="93.504545" y="515.565625" style="fill: #999999; stroke: #999999; stroke-width: 0.8"/>
      </g>
     </g>
     <g id="text_1">
      <!-- 0 -->
      <g style="fill: #999999" transform="translate(89.050795 533.203437) scale(0.14 -0.14)">
       <defs>
        <path id="DejaVuSans-30" d="M 2034 4250 
Q 1547 4250 1301 3770 
Q 1056 3291 1056 2328 
Q 1056 1369 1301 889 
Q 1547 409 2034 409 
Q 2525 409 2770 889 
Q 3016 1369 3016 2328 
Q 3016 3291 2770 3770 
Q 2525 4250 2034 4250 
z
M 2034 4750 
Q 2819 4750 3233 4129 
Q 3647 3509 3647 2328 
Q 3647 1150 3233 529 
Q 2819 -91 2034 -91 
Q 1250 -91 836 529 
Q 422 1150 422 2328 
Q 422 3509 836 4129 
Q 1250 4750 2034 4750 
z
" transform="scale(0.015625)"/>
       </defs>
       <use xlink:href="#DejaVuSans-30"/>
      </g>
     </g>
    </g>
    <g id="xtick_2">
     <g id="line2d_2">
      <g>
       <use xlink:href="#m4cda1c3312" x="237.522727" y="515.565625" style="fill: #999999; stroke: #999999; stroke-width: 0.8"/>
      </g>
     </g>
     <g id="text_2">
      <!-- 2 -->
      <g style="fill: #999999" transform="translate(233.068977 533.203437) scale(0.14 -0.14)">
       <defs>
        <path id="DejaVuSans-32" d="M 1228 531 
L 3431 531 
L 3431 0 
L 469 0 
L 469 531 
Q 828 903 1448 1529 
Q 2069 2156 2228 2338 
Q 2531 2678 2651 2914 
Q 2772 3150 2772 3378 
Q 2772 3750 2511 3984 
Q 2250 4219 1831 4219 
Q 1534 4219 1204 4116 
Q 875 4013 500 3803 
L 500 4441 
Q 881 4594 1212 4672 
Q 1544 4750 1819 4750 
Q 2544 4750 2975 4387 
Q 3406 4025 3406 3419 
Q 3406 3131 3298 2873 
Q 3191 2616 2906 2266 
Q 2828 2175 2409 1742 
Q 1991 1309 1228 531 
z
" transform="scale(0.015625)"/>
       </defs>
       <use xlink:href="#DejaVuSans-32"/>
      </g>
     </g>
    </g>
    <g id="xtick_3">
     <g id="line2d_3">
      <g>
       <use xlink:href="#m4cda1c3312" x="381.540909" y="515.565625" style="fill: #999999; stroke: #999999; stroke-width: 0.8"/>
      </g>
     </g>
     <g id="text_3">
      <!-- 4 -->
      <g style="fill: #999999" transform="translate(377.087159 533.203437) scale(0.14 -0.14)">
       <defs>
        <path id="DejaVuSans-34" d="M 2419 4116 
L 825 1625 
L 2419 1625 
L 2419 4116 
z
M 2253 4666 
L 3047 4666 
L 3047 1625 
L 3713 1625 
L 3713 1100 
L 3047 1100 
L 3047 0 
L 2419 0 
L 2419 1100 
L 313 1100 
L 313 1709 
L 2253 4666 
z
" transform="scale(0.015625)"/>
       </defs>
       <use xlink:href="#DejaVuSans-34"/>
      </g>
     </g>
    </g>
    <g id="xtick_4">
     <g id="line2d_4">
      <g>
       <use xlink:href="#m4cda1c3312" x="525.559091" y="515.565625" style="fill: #999999; stroke: #999999; stroke-width: 0.8"/>
      </g>
     </g>
     <g id="text_4">
      <!-- 6 -->
      <g style="fill: #999999" transform="translate(521.105341 533.203437) scale(0.14 -0.14)">
       <defs>
        <path id="DejaVuSans-36" d="M 2113 2584 
Q 1688 2584 1439 2293 
Q 1191 2003 1191 1497 
Q 1191 994 1439 701 
Q 1688 409 2113 409 
Q 2538 409 2786 701 
Q 3034 994 3034 1497 
Q 3034 2003 2786 2293 
Q 2538 2584 2113 2584 
z
M 3366 4563 
L 3366 3988 
Q 3128 4100 2886 4159 
Q 2644 4219 2406 4219 
Q 1781 4219 1451 3797 
Q 1122 3375 1075 2522 
Q 1259 2794 1537 2939 
Q 1816 3084 2150 3084 
Q 2853 3084 3261 2657 
Q 3669 2231 3669 1497 
Q 3669 778 3244 343 
Q 2819 -91 2113 -91 
Q 1303 -91 875 529 
Q 447 1150 447 2328 
Q 447 3434 972 4092 
Q 1497 4750 2381 4750 
Q 2619 4750 2861 4703 
Q 3103 4656 3366 4563 
z
" transform="scale(0.015625)"/>
       </defs>
       <use xlink:href="#DejaVuSans-36"/>
      </g>
     </g>
    </g>
    <g id="xtick_5">
     <g id="line2d_5">
      <g>
       <use xlink:href="#m4cda1c3312" x="669.577273" y="515.565625" style="fill: #999999; stroke: #999999; stroke-width: 0.8"/>
      </g>
     </g>
     <g id="text_5">
      <!-- 8 -->
      <g style="fill: #999999" transform="translate(665.123523 533.203437) scale(0.14 -0.14)">
       <defs>
        <path id="DejaVuSans-38" d="M 2034 2216 
Q 1584 2216 1326 1975 
Q 1069 1734 1069 1313 
Q 1069 891 1326 650 
Q 1584 409 2034 409 
Q 2484 409 2743 651 
Q 3003 894 3003 1313 
Q 3003 1734 2745 1975 
Q 2488 2216 2034 2216 
z
M 1403 2484 
Q 997 2584 770 2862 
Q 544 3141 544 3541 
Q 544 4100 942 4425 
Q 1341 4750 2034 4750 
Q 2731 4750 3128 4425 
Q 3525 4100 3525 3541 
Q 3525 3141 3298 2862 
Q 3072 2584 2669 2484 
Q 3125 2378 3379 2068 
Q 3634 1759 3634 1313 
Q 3634 634 3220 271 
Q 2806 -91 2034 -91 
Q 1263 -91 848 271 
Q 434 634 434 1313 
Q 434 1759 690 2068 
Q 947 2378 1403 2484 
z
M 1172 3481 
Q 1172 3119 1398 2916 
Q 1625 2713 2034 2713 
Q 2441 2713 2670 2916 
Q 2900 3119 2900 3481 
Q 2900 3844 2670 4047 
Q 2441 4250 2034 4250 
Q 1625 4250 1398 4047 
Q 1172 3844 1172 3481 
z
" transform="scale(0.015625)"/>
       </defs>
       <use xlink:href="#DejaVuSans-38"/>
      </g>
     </g>
    </g>
    <g id="xtick_6">
     <g id="line2d_6">
      <g>
       <use xlink:href="#m4cda1c3312" x="813.595455" y="515.565625" style="fill: #999999; stroke: #999999; stroke-width: 0.8"/>
      </g>
     </g>
     <g id="text_6">
      <!-- 10 -->
      <g style="fill: #999999" transform="translate(804.687955 533.203437) scale(0.14 -0.14)">
       <defs>
        <path id="DejaVuSans-31" d="M 794 531 
L 1825 531 
L 1825 4091 
L 703 3866 
L 703 4441 
L 1819 4666 
L 2450 4666 
L 2450 531 
L 3481 531 
L 3481 0 
L 794 0 
L 794 531 
z
" transform="scale(0.015625)"/>
       </defs>
       <use xlink:href="#DejaVuSans-31"/>
       <use xlink:href="#DejaVuSans-30" transform="translate(63.623047 0)"/>
      </g>
     </g>
    </g>
    <g id="text_7">
     <!-- X variable -->
     <g transform="translate(413.2525 558.2725) scale(0.16 -0.16)">
      <defs>
       <path id="DejaVuSans-58" d="M 403 4666 
L 1081 4666 
L 2241 2931 
L 3406 4666 
L 4084 4666 
L 2584 2425 
L 4184 0 
L 3506 0 
L 2194 1984 
L 872 0 
L 191 0 
L 1856 2491 
L 403 4666 
z
" transform="scale(0.015625)"/>
       <path id="DejaVuSans-20" transform="scale(0.015625)"/>
       <path id="DejaVuSans-76" d="M 191 3500 
L 800 3500 
L 1894 563 
L 2988 3500 
L 3597 3500 
L 2284 0 
L 1503 0 
L 191 3500 
z
" transform="scale(0.015625)"/>
       <path id="DejaVuSans-61" d="M 2194 1759 
Q 1497 1759 1228 1600 
Q 959 1441 959 1056 
Q 959 750 1161 570 
Q 1363 391 1709 391 
Q 2188 391 2477 730 
Q 2766 1069 2766 1631 
L 2766 1759 
L 2194 1759 
z
M 3341 1997 
L 3341 0 
L 2766 0 
L 2766 531 
Q 2569 213 2275 61 
Q 1981 -91 1556 -91 
Q 1019 -91 701 211 
Q 384 513 384 1019 
Q 384 1609 779 1909 
Q 1175 2209 1959 2209 
L 2766 2209 
L 2766 2266 
Q 2766 2663 2505 2880 
Q 2244 3097 1772 3097 
Q 1472 3097 1187 3025 
Q 903 2953 641 2809 
L 641 3341 
Q 956 3463 1253 3523 
Q 1550 3584 1831 3584 
Q 2591 3584 2966 3190 
Q 3341 2797 3341 1997 
z
" transform="scale(0.015625)"/>
       <path id="DejaVuSans-72" d="M 2631 2963 
Q 2534 3019 2420 3045 
Q 2306 3072 2169 3072 
Q 1681 3072 1420 2755 
Q 1159 2438 1159 1844 
L 1159 0 
L 581 0 
L 581 3500 
L 1159 3500 
L 1159 2956 
Q 1341 3275 1631 3429 
Q 1922 3584 2338 3584 
Q 2397 3584 2469 3576 
Q 2541 3569 2628 3553 
L 2631 2963 
z
" transform="scale(0.015625)"/>
       <path id="DejaVuSans-69" d="M 603 3500 
L 1178 3500 
L 1178 0 
L 603 0 
L 603 3500 
z
M 603 4863 
L 1178 4863 
L 1178 4134 
L 603 4134 
L 603 4863 
z
" transform="scale(0.015625)"/>
       <path id="DejaVuSans-62" d="M 3116 1747 
Q 3116 2381 2855 2742 
Q 2594 3103 2138 3103 
Q 1681 3103 1420 2742 
Q 1159 2381 1159 1747 
Q 1159 1113 1420 752 
Q 1681 391 2138 391 
Q 2594 391 2855 752 
Q 3116 1113 3116 1747 
z
M 1159 2969 
Q 1341 3281 1617 3432 
Q 1894 3584 2278 3584 
Q 2916 3584 3314 3078 
Q 3713 2572 3713 1747 
Q 3713 922 3314 415 
Q 2916 -91 2278 -91 
Q 1894 -91 1617 61 
Q 1341 213 1159 525 
L 1159 0 
L 581 0 
L 581 4863 
L 1159 4863 
L 1159 2969 
z
" transform="scale(0.015625)"/>
       <path id="DejaVuSans-6c" d="M 603 4863 
L 1178 4863 
L 1178 0 
L 603 0 
L 603 4863 
z
" transform="scale(0.015625)"/>
       <path id="DejaVuSans-65" d="M 3597 1894 
L 3597 1613 
L 953 1613 
Q 991 1019 1311 708 
Q 1631 397 2203 397 
Q 2534 397 2845 478 
Q 3156 559 3463 722 
L 3463 178 
Q 3153 47 2828 -22 
Q 2503 -91 2169 -91 
Q 1331 -91 842 396 
Q 353 884 353 1716 
Q 353 2575 817 3079 
Q 1281 3584 2069 3584 
Q 2775 3584 3186 3129 
Q 3597 2675 3597 1894 
z
M 3022 2063 
Q 3016 2534 2758 2815 
Q 2500 3097 2075 3097 
Q 1594 3097 1305 2825 
Q 1016 2553 972 2059 
L 3022 2063 
z
" transform="scale(0.015625)"/>
      </defs>
      <use xlink:href="#DejaVuSans-58"/>
      <use xlink:href="#DejaVuSans-20" transform="translate(68.505859 0)"/>
      <use xlink:href="#DejaVuSans-76" transform="translate(100.292969 0)"/>
      <use xlink:href="#DejaVuSans-61" transform="translate(159.472656 0)"/>
      <use xlink:href="#DejaVuSans-72" transform="translate(220.751953 0)"/>
      <use xlink:href="#DejaVuSans-69" transform="translate(261.865234 0)"/>
      <use xlink:href="#DejaVuSans-61" transform="translate(289.648438 0)"/>
      <use xlink:href="#DejaVuSans-62" transform="translate(350.927734 0)"/>
      <use xlink:href="#DejaVuSans-6c" transform="translate(414.404297 0)"/>
      <use xlink:href="#DejaVuSans-65" transform="translate(442.1875 0)"/>
     </g>
    </g>
   </g>
   <g id="matplotlib.axis_2">
    <g id="ytick_1">
     <g id="line2d_7">
      <defs>
       <path id="m5413b62da7" d="M 0 0 
L -3.5 0 
" style="stroke: #999999; stroke-width: 0.8"/>
      </defs>
      <g>
       <use xlink:href="#m5413b62da7" x="57.5" y="492.458097" style="fill: #999999; stroke: #999999; stroke-width: 0.8"/>
      </g>
     </g>
     <g id="text_8">
      <!-- 0 -->
      <g style="fill: #999999" transform="translate(41.5925 497.777003) scale(0.14 -0.14)">
       <use xlink:href="#DejaVuSans-30"/>
      </g>
     </g>
    </g>
    <g id="ytick_2">
     <g id="line2d_8">
      <g>
       <use xlink:href="#m5413b62da7" x="57.5" y="407.350499" style="fill: #999999; stroke: #999999; stroke-width: 0.8"/>
      </g>
     </g>
     <g id="text_9">
      <!-- 5 -->
      <g style="fill: #999999" transform="translate(41.5925 412.669406) scale(0.14 -0.14)">
       <defs>
        <path id="DejaVuSans-35" d="M 691 4666 
L 3169 4666 
L 3169 4134 
L 1269 4134 
L 1269 2991 
Q 1406 3038 1543 3061 
Q 1681 3084 1819 3084 
Q 2600 3084 3056 2656 
Q 3513 2228 3513 1497 
Q 3513 744 3044 326 
Q 2575 -91 1722 -91 
Q 1428 -91 1123 -41 
Q 819 9 494 109 
L 494 744 
Q 775 591 1075 516 
Q 1375 441 1709 441 
Q 2250 441 2565 725 
Q 2881 1009 2881 1497 
Q 2881 1984 2565 2268 
Q 2250 2553 1709 2553 
Q 1456 2553 1204 2497 
Q 953 2441 691 2322 
L 691 4666 
z
" transform="scale(0.015625)"/>
       </defs>
       <use xlink:href="#DejaVuSans-35"/>
      </g>
     </g>
    </g>
    <g id="ytick_3">
     <g id="line2d_9">
      <g>
       <use xlink:href="#m5413b62da7" x="57.5" y="322.242902" style="fill: #999999; stroke: #999999; stroke-width: 0.8"/>
      </g>
     </g>
     <g id="text_10">
      <!-- 10 -->
      <g style="fill: #999999" transform="translate(32.685 327.561808) scale(0.14 -0.14)">
       <use xlink:href="#DejaVuSans-31"/>
       <use xlink:href="#DejaVuSans-30" transform="translate(63.623047 0)"/>
      </g>
     </g>
    </g>
    <g id="ytick_4">
     <g id="line2d_10">
      <g>
       <use xlink:href="#m5413b62da7" x="57.5" y="237.135305" style="fill: #999999; stroke: #999999; stroke-width: 0.8"/>
      </g>
     </g>
     <g id="text_11">
      <!-- 15 -->
      <g style="fill: #999999" transform="translate(32.685 242.454211) scale(0.14 -0.14)">
       <use xlink:href="#DejaVuSans-31"/>
       <use xlink:href="#DejaVuSans-35" transform="translate(63.623047 0)"/>
      </g>
     </g>
    </g>
    <g id="ytick_5">
     <g id="line2d_11">
      <g>
       <use xlink:href="#m5413b62da7" x="57.5" y="152.027708" style="fill: #999999; stroke: #999999; stroke-width: 0.8"/>
      </g>
     </g>
     <g id="text_12">
      <!-- 20 -->
      <g style="fill: #999999" transform="translate(32.685 157.346614) scale(0.14 -0.14)">
       <use xlink:href="#DejaVuSans-32"/>
       <use xlink:href="#DejaVuSans-30" transform="translate(63.623047 0)"/>
      </g>
     </g>
    </g>
    <g id="ytick_6">
     <g id="line2d_12">
      <g>
       <use xlink:href="#m5413b62da7" x="57.5" y="66.920111" style="fill: #999999; stroke: #999999; stroke-width: 0.8"/>
      </g>
     </g>
     <g id="text_13">
      <!-- 25 -->
      <g style="fill: #999999" transform="translate(32.685 72.239017) scale(0.14 -0.14)">
       <use xlink:href="#DejaVuSans-32"/>
       <use xlink:href="#DejaVuSans-35" transform="translate(63.623047 0)"/>
      </g>
     </g>
    </g>
    <g id="text_14">
     <!-- Y variable -->
     <g transform="translate(19.3575 301.086563) rotate(-90) scale(0.16 -0.16)">
      <defs>
       <path id="DejaVuSans-59" d="M -13 4666 
L 666 4666 
L 1959 2747 
L 3244 4666 
L 3922 4666 
L 2272 2222 
L 2272 0 
L 1638 0 
L 1638 2222 
L -13 4666 
z
" transform="scale(0.015625)"/>
      </defs>
      <use xlink:href="#DejaVuSans-59"/>
      <use xlink:href="#DejaVuSans-20" transform="translate(61.083984 0)"/>
      <use xlink:href="#DejaVuSans-76" transform="translate(92.871094 0)"/>
      <use xlink:href="#DejaVuSans-61" transform="translate(152.050781 0)"/>
      <use xlink:href="#DejaVuSans-72" transform="translate(213.330078 0)"/>
      <use xlink:href="#DejaVuSans-69" transform="translate(254.443359 0)"/>
      <use xlink:href="#DejaVuSans-61" transform="translate(282.226562 0)"/>
      <use xlink:href="#DejaVuSans-62" transform="translate(343.505859 0)"/>
      <use xlink:href="#DejaVuSans-6c" transform="translate(406.982422 0)"/>
      <use xlink:href="#DejaVuSans-65" transform="translate(434.765625 0)"/>
     </g>
    </g>
   </g>
   <g id="line2d_13">
    <path d="M 93.504545 492.458097 
L 108.200278 483.773648 
L 122.896011 475.089199 
L 137.591744 466.404751 
L 152.287477 457.720302 
L 166.98321 449.035853 
L 181.678942 440.351404 
L 196.374675 431.666956 
L 211.070408 422.982507 
L 225.766141 414.298058 
L 240.461874 405.61361 
L 255.157607 396.929161 
L 269.85334 388.244712 
L 284.549072 379.560264 
L 299.244805 370.875815 
L 313.940538 362.191366 
L 328.636271 353.506917 
L 343.332004 344.822469 
L 358.027737 336.13802 
L 372.723469 327.453571 
L 387.419202 318.769123 
L 402.114935 310.084674 
L 416.810668 301.400225 
L 431.506401 292.715777 
L 446.202134 284.031328 
L 460.897866 275.346879 
L 475.593599 266.662431 
L 490.289332 257.977982 
L 504.985065 249.293533 
L 519.680798 240.609084 
L 534.376531 231.924636 
L 549.072263 223.240187 
L 563.767996 214.555738 
L 578.463729 205.87129 
L 593.159462 197.186841 
L 607.855195 188.502392 
L 622.550928 179.817944 
L 637.24666 171.133495 
L 651.942393 162.449046 
L 666.638126 153.764598 
L 681.333859 145.080149 
L 696.029592 136.3957 
L 710.725325 127.711251 
L 725.421058 119.026803 
L 740.11679 110.342354 
L 754.812523 101.657905 
L 769.508256 92.973457 
L 784.203989 84.289008 
L 798.899722 75.604559 
L 813.595455 66.920111 
" clip-path="url(#pa6c689e8e1)" style="fill: none; stroke: #1a1a1a; stroke-width: 2.5; stroke-linecap: square"/>
   </g>
   <g id="patch_3">
    <path d="M 57.5 515.565625 
L 57.5 7.2 
" style="fill: none; stroke: #cccccc; stroke-width: 0.8; stroke-linejoin: miter; stroke-linecap: square"/>
   </g>
   <g id="patch_4">
    <path d="M 57.5 515.565625 
L 849.6 515.565625 
" style="fill: none; stroke: #cccccc; stroke-width: 0.8; stroke-linejoin: miter; stroke-linecap: square"/>
   </g>
  </g>
 </g>
 <defs>
  <clipPath id="pa6c689e8e1">
   <rect x="57.5" y="7.2" width="792.1" height="508.365625"/>
  </clipPath>
 </defs>
</svg>
